<?xml version="1.0" encoding="utf-8"?>
<!-- Generator: Adobe Illustrator 26.2.1, SVG Export Plug-In . SVG Version: 6.00 Build 0)  -->
<svg version="1.1" id="Layer_1" xmlns="http://www.w3.org/2000/svg" xmlns:xlink="http://www.w3.org/1999/xlink" x="0px" y="0px"
	 viewBox="0 0 32 32" style="enable-background:new 0 0 32 32;" xml:space="preserve">
<style type="text/css">
	.st0{fill:#FFFFFF;}
</style>
<g>
	<g>
		<path class="st0" d="M6.54,12.34c3.73-0.79,7.46-1.57,11.18-2.36c-1.44-1.44-2.87-2.87-4.31-4.31
			c-2.08,5.66-8.54,8.58-11.32,13.97c-1.25,2.42,0.9,6.37,3.95,5.14c3.73-1.51,7.46-3.02,11.2-4.52c1.44-0.58,2.87-1.16,4.33-1.69
			c0.45-0.16,4.81-1.69,4.48-1.87c-0.58-1.01-1.16-2.01-1.73-3.02c-0.13-1.05,0.03-0.04-0.94,0.7c-1.04,0.8-2.12,1.43-3.27,2.05
			c-1.8,0.96-3.66,1.79-5.36,2.94c-2.39,1.62-4.91,3.79-3.85,6.93c0.36,1.08,1.23,2.25,2.44,2.44c1.93,0.31,3.74-0.04,5.66-0.34
			c3.17-0.49,5.51-0.19,8.5,0.91c4.24,1.55,6.06-5.21,1.86-6.75c-2.01-0.74-4.07-1.44-6.23-1.55c-2.51-0.12-5.57,1.36-7.93,0.98
			c0.81,0.81,1.63,1.63,2.44,2.44c-0.07-0.22-0.15-0.43-0.22-0.65c-0.12,0.9-0.24,1.8-0.35,2.7c2.3-3.46,19.69-8.21,13.22-15.28
			c-2.46-2.69-7.12-0.6-9.85,0.36c-5.5,1.92-10.86,4.29-16.26,6.47c1.32,1.71,2.64,3.43,3.95,5.14c3.14-6.06,9.58-8.97,12.03-15.64
			c0.98-2.68-1.92-4.81-4.31-4.31C12.13,4.02,8.4,4.81,4.68,5.59C0.27,6.52,2.14,13.27,6.54,12.34L6.54,12.34z"/>
	</g>
</g>
</svg>
